# xmcd
#
# Track frame offsets: 
#        150
#        19440
#        40762
#        61977
#        89032
#        109105
#        137138
#        161342
#
# Disc length: 2403 seconds
#
# Revision: 0
# Processed by: cddbd v1.5.2PL0 Copyright (c) Steve Scherf et al.
# Submitted via: ExactAudioCopy v0.99pb4
#
DISCID=69096108
DTITLE=Ties - [ n.:001 ]
DYEAR=2001
DGENRE=Blues
TTITLE0=Break These Ties
TTITLE1=Glittering Trash
TTITLE2=When I Least Expect It
TTITLE3=Confused Little Man
TTITLE4=Loner By Nature
TTITLE5=Sick And Tired
TTITLE6=Who Do You Think You Are
TTITLE7=Right Outside These Walls
EXTD=
EXTT0=
EXTT1=
EXTT2=
EXTT3=
EXTT4=
EXTT5=
EXTT6=
EXTT7=
PLAYORDER=
